<?xml version="1.0" encoding="iso-8859-1"?>
<!-- Uploaded to: SVG Repo, www.svgrepo.com, Generator: SVG Repo Mixer Tools -->
<svg fill="#000000" height="800px" width="800px" version="1.1" id="Layer_1" xmlns="http://www.w3.org/2000/svg" xmlns:xlink="http://www.w3.org/1999/xlink" 
	 viewBox="0 0 512.64 512.64" xml:space="preserve">
<g transform="translate(1 1)">
	<g>
		<path d="M508.571,387.053l-54.613-54.613h31.573c3.413,0,5.12,0,6.827-3.413c1.707-3.413,1.707-6.827-0.853-9.387l-47.147-55.467
			h24.107c3.413,0,5.973-1.707,6.827-3.413c1.707-3.413,0.853-6.827-0.853-9.387l-45.067-55.467h22.027
			c3.413,0,5.973-1.707,7.68-4.267c1.707-3.413,0.853-6.827-0.853-9.387l-59.733-76.8c-3.413-4.267-10.24-4.267-13.653,0
			l-42.654,54.626l-49.506-49.506h30.72c3.413,0,5.973-1.707,6.827-5.12c1.707-3.413,0.853-6.827-0.853-9.387L252.571,2.2
			c-2.56-4.267-9.387-4.267-12.8,0l-76.8,93.867c-1.707,2.56-2.56,5.973-0.853,9.387s4.267,5.12,7.68,5.12h30.72l-39.719,39.719
			L125.425,104.6c-3.413-4.267-10.24-4.267-13.653,0l-59.733,76.8c-1.707,2.56-2.56,6.827-0.853,9.387
			c1.707,3.413,4.267,5.12,7.68,5.12h19.787l-43.68,53.76c-1.707,2.56-2.56,6.827-0.853,9.387c1.707,3.413,4.267,5.12,7.68,5.12
			h21.803l-45.696,53.76c-1.707,2.56-2.56,5.973-0.853,9.387c1.707,3.413,4.267,5.12,7.68,5.12h30.72L1.691,386.2
			c-2.56,2.56-2.56,5.973-1.707,9.387c0.853,3.413,4.267,5.12,7.68,5.12h76.8v102.4c0,5.12,3.413,8.533,8.533,8.533h51.2
			c5.12,0,8.533-3.413,8.533-8.533v-102.4h59.733v102.4c0,5.12,3.413,8.533,8.533,8.533h68.267c5.12,0,8.533-3.413,8.533-8.533
			v-102.4h59.733v102.4c0,5.12,3.413,8.533,8.533,8.533h51.2c5.12,0,8.533-3.413,8.533-8.533v-102.4h76.8
			c3.413,0,6.827-1.707,7.68-4.267C511.985,393.027,511.131,389.613,508.571,387.053z M289.265,349.507h-68.267h-97.28
			l20.247-17.799c0.867-0.288,1.76-0.63,2.793-0.974l40.96-36.693c0.729-0.729,1.333-1.538,1.811-2.39l11.842-10.41h89.6
			l77.653,68.267H289.265z M169.502,209.856l-11.568-13.949h25.517L169.502,209.856z M141.638,261.613l65.707-65.707h78.507
			l39.814,39.814c0.441,0.989,1.098,1.951,2,2.853l20.692,19.953c0.378,1.436,1.184,2.777,2.348,3.94l1.707,1.707H168.945h-29.867
			L141.638,261.613z M352.92,195.907l-19.543,23.633l-23.633-23.633H352.92z M466.758,315.373H356.174l-38.571-34.133h56.994
			c3.413,0,6.827-1.707,7.68-5.12c1.707-3.413,0.853-6.827-1.707-9.387l-2.56-2.56h45.227L466.758,315.373z M450.545,247.107h-89.6
			l-15.36-15.36l29.013-35.84h34.133L450.545,247.107z M391.665,124.227l42.667,54.613h-73.387l-6.827-6.827L391.665,124.227z
			 M246.598,21.827l58.88,71.68h-33.279c0,0-0.001,0-0.001,0h-51.2c0,0-0.001,0-0.001,0h-33.279L246.598,21.827z M268.785,110.573
			l68.267,68.267h-47.787h-85.333h-47.787l68.267-68.267H268.785z M118.598,124.227l29.013,38.4l-15.36,15.36H97.265
			c-1.124,0-2.243,0.34-3.294,0.853H75.931L118.598,124.227z M101.531,195.907h34.133l21.333,26.453l-24.747,24.747H82.758h-23.04
			L101.531,195.907z M86.171,264.173h29.013l-2.56,2.56c-2.56,2.56-2.56,5.973-1.707,9.387c0.853,3.413,4.267,5.12,7.68,5.12h46.933
			l4.267,5.12l-32.427,29.013h-61.44H43.505L86.171,264.173z M135.665,494.573h-34.133v-93.867h34.133V494.573z M144.198,383.64
			h-51.2H28.145l51.2-50.347h38.281l-21.214,18.773c-2.56,2.56-3.413,5.973-2.56,9.387c0.853,2.56,4.267,5.12,7.68,5.12h110.933
			v17.067H144.198z M280.731,494.573h-51.2v-102.4v-25.6h51.2v25.6V494.573z M408.731,494.573h-34.133v-93.867h34.133V494.573z
			 M417.265,383.64h-51.2h-68.267v-17.067h93.867c3.413,0,6.827-2.56,8.533-5.12c0.25-0.998,0.335-1.994,0.293-2.97
			c0.115-2.675-0.825-5.241-2.853-7.27l-21.992-18.609l-0.186-0.164h55.458l51.2,51.2H417.265z"/>
	</g>
</g>
</svg>